<svg width="27" height="30" viewBox="0 0 27 30" fill="none" xmlns="http://www.w3.org/2000/svg">
<path d="M21.3949 1.8421V4.47368M5.60547 1.8421V4.47368" stroke="#F66135" stroke-width="1.97368" stroke-linecap="round" stroke-linejoin="round"/>
<path d="M13.4946 16.3158H13.5064M13.4946 21.579H13.5064M18.7518 16.3158H18.7636M8.2373 16.3158H8.24911M8.2373 21.579H8.24911" stroke="#F66135" stroke-width="2.63158" stroke-linecap="round" stroke-linejoin="round"/>
<path d="M2.31543 9.73682H24.6839" stroke="#F66135" stroke-width="1.97368" stroke-linecap="round" stroke-linejoin="round"/>
<path d="M1 15.3201C1 9.58676 1 6.72011 2.64752 4.93901C4.29505 3.1579 6.9467 3.1579 12.25 3.1579H14.75C20.0533 3.1579 22.705 3.1579 24.3525 4.93901C26 6.72011 26 9.58676 26 15.3201V15.9957C26 21.729 26 24.5957 24.3525 26.3768C22.705 28.1579 20.0533 28.1579 14.75 28.1579H12.25C6.9467 28.1579 4.29505 28.1579 2.64752 26.3768C1 24.5957 1 21.729 1 15.9957V15.3201Z" stroke="#F66135" stroke-width="1.97368" stroke-linecap="round" stroke-linejoin="round"/>
<path d="M1.6582 9.73682H25.3424" stroke="#F66135" stroke-width="1.97368" stroke-linecap="round" stroke-linejoin="round"/>
</svg>
