<svg width="14" height="13" viewBox="0 0 14 13" fill="none" xmlns="http://www.w3.org/2000/svg">
<path d="M7.02103 0.0455322C3.60148 0.0455322 0.814941 2.83207 0.814941 6.25162C0.814941 9.67118 3.60148 12.4577 7.02103 12.4577C10.4406 12.4577 13.2271 9.67118 13.2271 6.25162C13.2271 2.83207 10.4406 0.0455322 7.02103 0.0455322ZM9.98754 4.82422L6.46869 8.34307C6.3818 8.42996 6.26389 8.47961 6.13977 8.47961C6.01564 8.47961 5.89773 8.42996 5.81084 8.34307L4.05452 6.58675C3.87454 6.40677 3.87454 6.10888 4.05452 5.9289C4.2345 5.74893 4.53239 5.74893 4.71237 5.9289L6.13977 7.35631L9.3297 4.16638C9.50967 3.9864 9.80757 3.9864 9.98754 4.16638C10.1675 4.34635 10.1675 4.63804 9.98754 4.82422Z" fill="#3EBF8F"/>
</svg>
