<svg width="20" height="20" viewBox="0 0 20 20" fill="none" xmlns="http://www.w3.org/2000/svg">
<path d="M5.58966 4.4107C5.26422 4.08527 4.73658 4.08527 4.41115 4.4107C4.08571 4.73614 4.08571 5.26378 4.41115 5.58922L8.82185 9.99992L4.41107 14.4107C4.08563 14.7361 4.08563 15.2638 4.41107 15.5892C4.73651 15.9147 5.26414 15.9147 5.58958 15.5892L10.0004 11.1784L14.4112 15.5892C14.7366 15.9147 15.2642 15.9147 15.5897 15.5892C15.9151 15.2638 15.9151 14.7362 15.5897 14.4107L11.1789 9.99992L15.5896 5.58922C15.915 5.26378 15.915 4.73614 15.5896 4.4107C15.2641 4.08527 14.7365 4.08527 14.4111 4.4107L10.0004 8.82141L5.58966 4.4107Z" fill="#484848"/>
</svg>
