<svg width="20" height="19" viewBox="0 0 20 19" fill="none" xmlns="http://www.w3.org/2000/svg">
<path d="M10.0821 17.8955C5.46446 17.8955 1.71118 14.1422 1.71118 9.52459C1.71118 4.90697 5.46446 1.15369 10.0821 1.15369C14.6997 1.15369 18.453 4.90697 18.453 9.52459C18.453 14.1422 14.6997 17.8955 10.0821 17.8955ZM10.0821 2.32172C6.11077 2.32172 2.87921 5.55328 2.87921 9.52459C2.87921 13.4959 6.11077 16.7275 10.0821 16.7275C14.0534 16.7275 17.285 13.4959 17.285 9.52459C17.285 5.55328 14.0534 2.32172 10.0821 2.32172Z" fill="#F66135"/>
<path d="M7.87846 12.3123C7.73051 12.3123 7.58255 12.2578 7.46575 12.141C7.23993 11.9152 7.23993 11.5414 7.46575 11.3156L11.8731 6.9082C12.0989 6.68238 12.4727 6.68238 12.6985 6.9082C12.9244 7.13401 12.9244 7.50779 12.6985 7.7336L8.29116 12.141C8.18214 12.2578 8.02641 12.3123 7.87846 12.3123Z" fill="#F66135"/>
<path d="M12.2858 12.3123C12.1379 12.3123 11.9899 12.2578 11.8731 12.141L7.46575 7.7336C7.23993 7.50779 7.23993 7.13401 7.46575 6.9082C7.69157 6.68238 8.06534 6.68238 8.29116 6.9082L12.6985 11.3156C12.9244 11.5414 12.9244 11.9152 12.6985 12.141C12.5817 12.2578 12.4338 12.3123 12.2858 12.3123Z" fill="#F66135"/>
</svg>
