<svg width="19" height="19" viewBox="0 0 19 19" fill="none" xmlns="http://www.w3.org/2000/svg">
<path d="M16.5297 5.32145C16.5142 5.32145 16.491 5.32145 16.4677 5.32145C12.3639 4.9103 8.26789 4.75515 4.21066 5.1663L2.6281 5.32145C2.30228 5.35248 2.01525 5.11975 1.98422 4.79394C1.95319 4.46812 2.18592 4.18884 2.50398 4.15781L4.08653 4.00266C8.21358 3.58375 12.3949 3.74666 16.584 4.15781C16.9021 4.18884 17.1348 4.47587 17.1038 4.79394C17.0805 5.09648 16.8245 5.32145 16.5297 5.32145Z" fill="#F66135"/>
<path d="M6.83264 4.53796C6.80161 4.53796 6.77058 4.53796 6.73179 4.53021C6.42149 4.4759 6.20427 4.17336 6.25858 3.86305L6.42924 2.84681C6.55337 2.10207 6.72403 1.07031 8.53156 1.07031H10.5641C12.3793 1.07031 12.55 2.14086 12.6664 2.85456L12.837 3.86305C12.8913 4.18111 12.6741 4.48366 12.3638 4.53021C12.0458 4.58451 11.7432 4.3673 11.6967 4.05699L11.526 3.0485C11.4174 2.37359 11.3941 2.24171 10.5718 2.24171H8.53931C7.71701 2.24171 7.70149 2.35032 7.58513 3.04075L7.4067 4.04924C7.36016 4.33627 7.11191 4.53796 6.83264 4.53796Z" fill="#F66135"/>
<path d="M12.0381 17.7493H7.05774C4.35033 17.7493 4.24173 16.2521 4.15639 15.0419L3.65215 7.23002C3.62887 6.91196 3.87712 6.63269 4.19518 6.60941C4.521 6.5939 4.79252 6.83438 4.81579 7.15245L5.32003 14.9644C5.40537 16.1435 5.4364 16.5857 7.05774 16.5857H12.0381C13.6672 16.5857 13.6983 16.1435 13.7758 14.9644L14.2801 7.15245C14.3033 6.83438 14.5826 6.5939 14.9007 6.60941C15.2187 6.63269 15.467 6.9042 15.4437 7.23002L14.9395 15.0419C14.8541 16.2521 14.7455 17.7493 12.0381 17.7493Z" fill="#F66135"/>
<path d="M10.8355 13.4826H8.25223C7.93417 13.4826 7.67041 13.2189 7.67041 12.9008C7.67041 12.5827 7.93417 12.319 8.25223 12.319H10.8355C11.1536 12.319 11.4173 12.5827 11.4173 12.9008C11.4173 13.2189 11.1536 13.4826 10.8355 13.4826Z" fill="#F66135"/>
<path d="M11.4872 10.3794H7.60843C7.29037 10.3794 7.02661 10.1156 7.02661 9.79758C7.02661 9.47952 7.29037 9.21576 7.60843 9.21576H11.4872C11.8053 9.21576 12.0691 9.47952 12.0691 9.79758C12.0691 10.1156 11.8053 10.3794 11.4872 10.3794Z" fill="#F66135"/>
</svg>
