<svg width="15" height="16" viewBox="0 0 15 16" fill="none" xmlns="http://www.w3.org/2000/svg">
<g clip-path="url(#clip0_4_5101)">
<path d="M7.5081 5.33603C7.16548 5.33603 6.88515 5.0557 6.88515 4.71308V2.22128C6.88515 1.87866 7.16548 1.59833 7.5081 1.59833C7.85072 1.59833 8.13105 1.87866 8.13105 2.22128V4.71308C8.13105 5.0557 7.85072 5.33603 7.5081 5.33603ZM7.5081 15.3032C7.16548 15.3032 6.88515 15.0229 6.88515 14.6803V12.1885C6.88515 11.8459 7.16548 11.5655 7.5081 11.5655C7.85072 11.5655 8.13105 11.8459 8.13105 12.1885V14.6803C8.13105 15.0229 7.85072 15.3032 7.5081 15.3032ZM13.7376 9.07374H11.2458C10.9032 9.07374 10.6229 8.79341 10.6229 8.45079C10.6229 8.10816 10.9032 7.82784 11.2458 7.82784H13.7376C14.0802 7.82784 14.3606 8.10816 14.3606 8.45079C14.3606 8.79341 14.0802 9.07374 13.7376 9.07374ZM3.77039 9.07374H1.27859C0.935968 9.07374 0.65564 8.79341 0.65564 8.45079C0.65564 8.10816 0.935968 7.82784 1.27859 7.82784H3.77039C4.11302 7.82784 4.39334 8.10816 4.39334 8.45079C4.39334 8.79341 4.11302 9.07374 3.77039 9.07374ZM11.9124 13.478C11.7504 13.478 11.5947 13.4157 11.4701 13.2973L9.70711 11.5344C9.64944 11.4767 9.60369 11.4082 9.57248 11.3329C9.54127 11.2575 9.5252 11.1768 9.5252 11.0952C9.5252 11.0136 9.54127 10.9329 9.57248 10.8575C9.60369 10.7822 9.64944 10.7137 9.70711 10.656C9.76479 10.5984 9.83326 10.5526 9.90861 10.5214C9.98397 10.4902 10.0647 10.4741 10.1463 10.4741C10.2279 10.4741 10.3086 10.4902 10.384 10.5214C10.4593 10.5526 10.5278 10.5984 10.5855 10.656L12.3484 12.419C12.4354 12.506 12.4945 12.6168 12.5183 12.7375C12.5421 12.8582 12.5295 12.9832 12.4821 13.0967C12.4347 13.2102 12.3546 13.307 12.2521 13.3749C12.1495 13.4428 12.0291 13.4787 11.9061 13.478H11.9124ZM4.86679 6.43243C4.70482 6.43243 4.54908 6.37013 4.42449 6.25177L2.66154 4.48882C2.60387 4.43115 2.55812 4.36268 2.5269 4.28732C2.49569 4.21197 2.47963 4.1312 2.47963 4.04964C2.47963 3.96808 2.49569 3.88731 2.5269 3.81196C2.55812 3.7366 2.60387 3.66813 2.66154 3.61046C2.71922 3.55278 2.78768 3.50704 2.86304 3.47582C2.93839 3.44461 3.01916 3.42854 3.10072 3.42854C3.18228 3.42854 3.26305 3.44461 3.3384 3.47582C3.41376 3.50704 3.48223 3.55278 3.5399 3.61046L5.30285 5.37341C5.38978 5.46041 5.4489 5.57127 5.47269 5.69194C5.49649 5.8126 5.48389 5.93761 5.43649 6.05109C5.38909 6.16458 5.30904 6.26142 5.20649 6.32931C5.10395 6.39721 4.98354 6.4331 4.86056 6.43243H4.86679ZM3.10384 13.478C2.94187 13.478 2.78613 13.4157 2.66154 13.2973C2.60379 13.2397 2.55797 13.1713 2.52671 13.0959C2.49545 13.0205 2.47936 12.9398 2.47936 12.8582C2.47936 12.7766 2.49545 12.6958 2.52671 12.6204C2.55797 12.5451 2.60379 12.4766 2.66154 12.419L4.42449 10.656C4.48217 10.5984 4.55064 10.5526 4.62599 10.5214C4.70134 10.4902 4.78211 10.4741 4.86367 10.4741C4.94524 10.4741 5.026 10.4902 5.10136 10.5214C5.17671 10.5526 5.24518 10.5984 5.30285 10.656C5.36053 10.7137 5.40628 10.7822 5.43749 10.8575C5.4687 10.9329 5.48477 11.0136 5.48477 11.0952C5.48477 11.1768 5.4687 11.2575 5.43749 11.3329C5.40628 11.4082 5.36053 11.4767 5.30285 11.5344L3.5399 13.2973C3.41531 13.4219 3.25957 13.478 3.09761 13.478H3.10384ZM10.1494 6.43243C9.98744 6.43243 9.83171 6.37013 9.70711 6.25177C9.64936 6.19414 9.60355 6.12568 9.57229 6.05032C9.54103 5.97496 9.52494 5.89418 9.52494 5.81259C9.52494 5.731 9.54103 5.65022 9.57229 5.57486C9.60355 5.4995 9.64936 5.43104 9.70711 5.37341L11.4701 3.61046C11.5277 3.55278 11.5962 3.50704 11.6716 3.47582C11.7469 3.44461 11.8277 3.42854 11.9092 3.42854C11.9908 3.42854 12.0716 3.44461 12.1469 3.47582C12.2223 3.50704 12.2908 3.55278 12.3484 3.61046C12.4061 3.66813 12.4518 3.7366 12.4831 3.81196C12.5143 3.88731 12.5303 3.96808 12.5303 4.04964C12.5303 4.1312 12.5143 4.21197 12.4831 4.28732C12.4518 4.36268 12.4061 4.43115 12.3484 4.48882L10.5855 6.25177C10.4609 6.37636 10.3051 6.43243 10.1432 6.43243H10.1494Z" fill="#F66135"/>
</g>
<defs>
<clipPath id="clip0_4_5101">
<rect width="14.9508" height="14.9508" fill="white" transform="translate(0.0327148 0.975403)"/>
</clipPath>
</defs>
</svg>
