<svg width="56" height="54" viewBox="0 0 56 54" fill="none" xmlns="http://www.w3.org/2000/svg">
<path d="M20.7379 1.42639H37.3531L54.3776 18.4508V46.2789C54.3774 49.7193 51.5875 52.5084 48.1471 52.5084H20.7379C17.2975 52.5084 14.5086 49.7193 14.5084 46.2789V7.65588C14.5084 4.21542 17.2975 1.42639 20.7379 1.42639Z" fill="#EEF1F7" stroke="#CBD0DC" stroke-width="2.4918"/>
<rect x="0.180298" y="23.8525" width="37.377" height="21.8033" rx="4.36066" fill="#D82042"/>
<path d="M6.375 40.0492V29.6289H10.0893C10.8999 29.6289 11.5716 29.7765 12.1041 30.0716C12.6367 30.3667 13.0352 30.7703 13.2998 31.2825C13.5644 31.7913 13.6967 32.3646 13.6967 33.0023C13.6967 33.6434 13.5627 34.22 13.2947 34.7322C13.0301 35.241 12.6299 35.6446 12.0939 35.9431C11.5614 36.2382 10.8915 36.3858 10.0842 36.3858H7.52998V35.0527H9.9417C10.4539 35.0527 10.8694 34.9645 11.1883 34.7882C11.5071 34.6084 11.7412 34.3642 11.8904 34.0555C12.0397 33.7468 12.1143 33.3957 12.1143 33.0023C12.1143 32.6088 12.0397 32.2594 11.8904 31.9541C11.7412 31.6489 11.5054 31.4097 11.1832 31.2367C10.8643 31.0637 10.4437 30.9772 9.92135 30.9772H7.9472V40.0492H6.375Z" fill="white"/>
<path d="M18.9132 40.0492H15.5398V29.6289H19.02C20.041 29.6289 20.9178 29.8375 21.6505 30.2547C22.3832 30.6686 22.9446 31.2639 23.3346 32.0406C23.7281 32.814 23.9249 33.7417 23.9249 34.8238C23.9249 35.9092 23.7264 36.842 23.3296 37.6222C22.9361 38.4024 22.3662 39.0027 21.62 39.4233C20.8737 39.8406 19.9715 40.0492 18.9132 40.0492ZM17.112 38.6754H18.8267C19.6204 38.6754 20.2801 38.5262 20.8059 38.2277C21.3317 37.9258 21.7251 37.4899 21.9863 36.92C22.2475 36.3468 22.3781 35.648 22.3781 34.8238C22.3781 34.0063 22.2475 33.3126 21.9863 32.7428C21.7285 32.1729 21.3435 31.7404 20.8313 31.4453C20.3191 31.1502 19.6831 31.0027 18.9233 31.0027H17.112V38.6754Z" fill="white"/>
<path d="M25.8799 40.0492V29.6289H32.3417V30.9823H27.4521V34.1572H31.8787V35.5056H27.4521V40.0492H25.8799Z" fill="white"/>
</svg>
