<svg width="28" height="28" viewBox="0 0 28 28" fill="none" xmlns="http://www.w3.org/2000/svg">
<path d="M8.87508 22.6368H6.70754C3.38856 22.3997 1.89847 19.8484 1.89847 17.5793C1.89847 15.3102 3.38858 12.7476 6.65111 12.5218C7.11396 12.4766 7.52035 12.8379 7.55421 13.312C7.58808 13.7749 7.23818 14.1813 6.76404 14.2151C4.57397 14.3732 3.59182 16.0214 3.59182 17.5906C3.59182 19.1597 4.57397 20.8079 6.76404 20.966H8.87508C9.33793 20.966 9.72176 21.3498 9.72176 21.8127C9.72176 22.2755 9.33793 22.6368 8.87508 22.6368Z" fill="#F66135"/>
<path d="M19.2719 22.6367C19.2493 22.6367 19.238 22.6367 19.2155 22.6367C18.7526 22.6367 18.3236 22.2529 18.3236 21.79C18.3236 21.3046 18.6849 20.9434 19.159 20.9434C20.5476 20.9434 21.7894 20.4579 22.7602 19.5887C24.5213 18.0534 24.6342 15.8407 24.1601 14.2828C23.6859 12.7362 22.3651 10.9639 20.0621 10.6816C19.6896 10.6365 19.3961 10.3543 19.3283 9.98172C18.8768 7.27235 17.4205 5.39837 15.2079 4.72103C12.9275 4.00982 10.2632 4.70974 8.60374 6.44825C6.98941 8.13031 6.61688 10.4897 7.55387 13.0862C7.71191 13.5265 7.48619 14.0119 7.04592 14.1699C6.60564 14.328 6.12019 14.1022 5.96214 13.6619C4.82195 10.4784 5.34126 7.43039 7.38457 5.28548C9.47304 3.0954 12.8259 2.22614 15.7046 3.10669C18.3462 3.9195 20.2089 6.09828 20.8862 9.12374C23.1892 9.64304 25.0406 11.3928 25.7744 13.8087C26.5759 16.439 25.8534 19.1484 23.8778 20.8643C22.6247 21.9932 20.9878 22.6367 19.2719 22.6367Z" fill="#F66135"/>
<path d="M14 25.9557C11.7309 25.9557 9.6086 24.7478 8.44583 22.7948C8.32165 22.6029 8.19747 22.3771 8.09587 22.1287C7.71204 21.3272 7.50882 20.4128 7.50882 19.4645C7.50882 15.8859 10.4214 12.9733 14 12.9733C17.5786 12.9733 20.4912 15.8859 20.4912 19.4645C20.4912 20.4241 20.288 21.3272 19.8816 22.1626C19.7913 22.3771 19.6671 22.6029 19.5317 22.8174C18.3915 24.7478 16.2691 25.9557 14 25.9557ZM14 14.6667C11.3584 14.6667 9.20217 16.8229 9.20217 19.4645C9.20217 20.1644 9.34894 20.8192 9.63116 21.4175C9.72148 21.6094 9.80048 21.7675 9.89079 21.9142C10.7488 23.3705 12.3179 24.2624 13.9887 24.2624C15.6595 24.2624 17.2287 23.3705 18.0753 21.9368C18.1769 21.7675 18.2673 21.6094 18.335 21.4514C18.6398 20.8305 18.7866 20.1757 18.7866 19.4758C18.7978 16.8229 16.6416 14.6667 14 14.6667Z" fill="#F66135"/>
<path d="M13.3564 21.4287C13.1419 21.4287 12.9275 21.3497 12.7581 21.1804L11.6405 20.0628C11.3131 19.7354 11.3131 19.1935 11.6405 18.8661C11.9678 18.5388 12.5097 18.5388 12.8371 18.8661L13.379 19.408L15.1852 17.7372C15.5352 17.4211 16.0658 17.4437 16.3819 17.7824C16.698 18.121 16.6754 18.6629 16.3367 18.979L13.9322 21.203C13.7628 21.3497 13.5596 21.4287 13.3564 21.4287Z" fill="#F66135"/>
</svg>
